<svg width="129" height="30" viewBox="0 0 129 30" fill="none" xmlns="http://www.w3.org/2000/svg">
<path d="M0.88872 29V0.649732H21.3726V7.40629H9.45611V11.5732H19.7175V17.6872H9.45611V22.4187H21.6646V29H0.88872ZM23.3781 21.1336V19.8485H31.7508V20.5494C31.7378 21.5619 32.0169 22.3213 32.5881 22.8276C33.1722 23.3338 33.977 23.587 35.0025 23.587C35.9631 23.587 36.7095 23.3858 37.2417 22.9834C37.7739 22.568 38.04 22.0033 38.04 21.2894C38.04 20.5365 37.7674 19.9588 37.2222 19.5564C36.69 19.141 35.2427 18.6023 32.8801 17.9403C29.9205 17.1095 27.6423 16.0061 26.0457 14.6302C24.462 13.2412 23.6637 11.333 23.6507 8.90558C23.6507 6.14065 24.6697 3.9988 26.7077 2.48004C28.7587 0.961273 31.4457 0.201891 34.7688 0.201891C38.092 0.201891 40.779 0.91584 42.83 2.34374C44.8939 3.75866 45.9259 5.74473 45.9259 8.30197V9.37289H37.7285V8.84717C37.7285 8.02937 37.4883 7.38681 37.0081 6.9195C36.5278 6.45219 35.8268 6.21853 34.9051 6.21853C33.9575 6.21853 33.2696 6.40027 32.8412 6.76373C32.4128 7.11422 32.1986 7.58802 32.1986 8.18514C32.1986 8.79524 32.4712 9.25606 33.0164 9.5676C33.5746 9.87915 35.1064 10.3724 37.6117 11.0474C40.3896 11.8003 42.5704 12.8842 44.154 14.2991C45.7507 15.7011 46.549 17.7326 46.549 20.3937C46.549 23.3403 45.4846 25.5925 43.3557 27.1502C41.2398 28.6949 38.4879 29.4673 35.0999 29.4673C31.7118 29.4673 28.908 28.7728 26.6882 27.3839C24.4815 25.9819 23.3781 23.8985 23.3781 21.1336ZM49.2166 29V0.649732H58.076V10.8332H64.5016V0.649732H73.361V29H64.5016V17.9013H58.076V29H49.2166ZM76.418 15.6427V14.0071C76.418 9.28203 77.6317 5.79666 80.0592 3.55096C82.4996 1.30527 85.615 0.18242 89.4054 0.18242C93.2088 0.18242 96.3307 1.30527 98.7711 3.55096C101.225 5.79666 102.451 9.28203 102.451 14.0071V15.6427C102.451 20.3677 101.225 23.8531 98.7711 26.0988C96.3307 28.3445 93.2088 29.4673 89.4054 29.4673C85.615 29.4673 82.4996 28.3445 80.0592 26.0988C77.6317 23.8531 76.418 20.3677 76.418 15.6427ZM85.628 17.8624C85.628 19.8744 85.959 21.3023 86.621 22.1461C87.283 22.9898 88.2112 23.4117 89.4054 23.4117C90.6126 23.4117 91.5538 22.9898 92.2288 22.1461C92.9167 21.3023 93.2607 19.8744 93.2607 17.8624V11.8263C93.2607 9.82722 92.9167 8.41231 92.2288 7.58153C91.5538 6.73777 90.6126 6.31589 89.4054 6.31589C88.2112 6.31589 87.283 6.73777 86.621 7.58153C85.959 8.41231 85.628 9.82722 85.628 11.8263V17.8624ZM105.528 29V0.649732H118.924C122.143 0.649732 124.623 1.53892 126.362 3.31731C128.101 5.08271 128.971 7.54259 128.971 10.6969C128.971 13.8513 128.114 16.3177 126.401 18.0961C124.7 19.8615 122.169 20.7442 118.807 20.7442H114.387V29H105.528ZM114.387 14.7665H117.016C118.197 14.7665 119.008 14.416 119.45 13.715C119.904 13.014 120.131 12.0534 120.131 10.8332C120.131 9.61304 119.904 8.65894 119.45 7.97095C119.008 7.28297 118.197 6.93897 117.016 6.93897H114.387V14.7665Z" fill="#7786DB"/>
</svg>
